<svg class="icon" xmlns="http://www.w3.org/2000/svg" viewBox="0 0 24 24">
    <path d="M10 20v-6h4v6h5v-8h3L12 3 2 12h3v8z"/>
</svg>
<svg class="icon" xmlns="http://www.w3.org/2000/svg" viewBox="0 0 24 24">
    <path d="M21.71 20.29l-3.4-3.39A9 9 0 1 0 18 19a9 9 0 0 0-7-16 9 9 0 0 0-7 16 9 9 0 0 0 7 2 9 9 0 0 0 7-2l3.39 3.4a1 1 0 0 0 1.42 0 1 1 0 0 0 0-1.41zM5 11a7 7 0 1 1 7 7 7 7 0 0 1-7-7z"/>
</svg>
<svg class="icon" xmlns="http://www.w3.org/2000/svg" viewBox="0 0 24 24">
    <path d="M12 12a5 5 0 1 0-5-5 5 5 0 0 0 5 5zm0 2c-3.33 0-10 1.68-10 5v3h20v-3c0-3.32-6.67-5-10-5z"/>
</svg>